<?xml version="1.0" standalone="no"?>
<!DOCTYPE svg PUBLIC "-//W3C//DTD SVG 20010904//EN"
 "http://www.w3.org/TR/2001/REC-SVG-20010904/DTD/svg10.dtd">
<svg version="1.0" xmlns="http://www.w3.org/2000/svg"
 width="2000.000000pt" height="2000.000000pt" viewBox="0 0 2000.000000 2000.000000"
 preserveAspectRatio="xMidYMid meet">

<g transform="translate(0.000000,2000.000000) scale(0.100000,-0.100000)"
fill="#000000" stroke="none">
<path d="M9530 15734 c-222 -16 -615 -70 -830 -114 -208 -43 -366 -101 -640
-236 -364 -179 -517 -289 -928 -667 -333 -306 -574 -625 -770 -1017 -124 -248
-204 -463 -236 -635 -8 -38 -25 -113 -40 -165 -39 -142 -69 -356 -70 -505 -1
-151 12 -206 78 -330 57 -107 355 -524 406 -567 25 -22 63 -41 102 -52 85 -23
159 -76 206 -146 21 -31 62 -113 91 -181 87 -202 157 -332 216 -399 30 -33 55
-70 55 -80 0 -24 13 -26 34 -5 12 12 13 22 6 41 -6 14 -10 49 -10 77 0 29 -11
135 -25 237 -68 495 -92 820 -64 872 16 31 51 59 174 142 61 41 148 107 195
148 47 41 139 114 205 163 66 49 174 132 240 185 268 215 789 570 835 570 24
0 68 -51 174 -198 146 -203 341 -392 405 -392 73 0 96 58 88 214 -5 93 -57
384 -92 520 l-8 29 39 -22 c21 -12 73 -49 114 -82 99 -79 177 -126 441 -265
269 -142 411 -207 728 -333 508 -202 681 -247 814 -210 50 14 113 71 128 116
19 57 6 109 -70 281 -39 89 -71 165 -71 168 0 13 147 -6 325 -41 291 -57 364
-81 448 -148 78 -61 256 -320 293 -426 13 -36 29 -66 36 -66 28 0 52 305 33
427 -6 40 -4 49 9 54 27 10 160 -43 308 -122 76 -41 146 -74 157 -74 25 0 78
55 84 89 7 33 4 46 -38 181 -18 58 -45 159 -59 225 -35 159 -84 372 -95 413
-8 26 -6 34 6 39 36 14 329 -78 503 -158 91 -42 118 -50 146 -45 43 9 61 38
41 69 -8 12 -22 49 -31 82 -22 76 -112 246 -183 348 -169 240 -591 635 -1027
963 -420 315 -644 463 -886 586 -415 212 -900 362 -1319 408 -51 6 -112 15
-135 21 -42 11 -435 20 -536 13z m-2360 -5010 c0 -8 -4 -12 -10 -9 -5 3 -10
10 -10 16 0 5 5 9 10 9 6 0 10 -7 10 -16z"/>
<path d="M9080 11564 c-83 -26 -106 -44 -143 -113 -113 -210 -104 -592 18
-742 42 -52 153 -106 184 -90 9 5 32 11 52 15 88 16 166 113 205 257 33 121
10 479 -36 570 -26 49 -72 87 -118 94 -20 4 -50 11 -66 16 -35 11 -39 11 -96
-7z"/>
<path d="M11486 11564 c-51 -18 -67 -34 -99 -93 -37 -67 -62 -181 -106 -478
-17 -117 -11 -209 18 -261 20 -36 95 -66 148 -58 98 13 164 78 197 196 21 75
59 462 52 529 -9 74 -49 139 -100 162 -48 22 -58 22 -110 3z"/>
<path d="M10934 9979 c-8 -9 -21 -201 -38 -524 -15 -280 -29 -548 -32 -595 -2
-47 -13 -256 -24 -465 -37 -699 -49 -929 -55 -1050 -3 -66 -8 -150 -11 -187
l-6 -66 -47 -7 c-25 -3 -204 -44 -396 -89 -254 -60 -350 -87 -350 -97 0 -8 7
-13 15 -13 8 1 177 41 375 89 198 48 370 90 383 92 23 5 23 4 18 -53 -4 -33
-16 -245 -27 -472 -16 -315 -18 -417 -10 -425 15 -15 137 -12 291 8 63 8 174
17 245 21 276 13 597 56 890 119 66 14 201 37 300 50 99 14 194 28 210 31 107
21 -79 -33 -831 -240 -467 -129 -997 -276 -1179 -326 -833 -230 -1026 -282
-1031 -277 -3 3 -40 284 -83 625 -46 373 -82 626 -90 635 -16 20 -67 4 -74
-23 -2 -10 37 -347 87 -750 88 -708 92 -733 115 -751 14 -11 31 -17 39 -14 8
3 494 143 1081 311 586 168 1260 361 1496 429 237 68 700 200 1030 294 330 94
608 176 617 181 14 8 18 4 22 -23 13 -84 26 -291 19 -298 -4 -4 -78 -22 -163
-39 -85 -17 -215 -47 -288 -66 -74 -18 -174 -39 -221 -45 -47 -6 -108 -17
-136 -25 l-50 -13 -69 -143 c-37 -79 -129 -265 -203 -413 -142 -283 -159 -334
-134 -398 15 -39 51 -49 176 -48 117 0 277 24 620 91 110 21 276 53 369 70
183 34 649 158 891 238 182 60 393 155 546 247 146 88 372 242 472 322 43 35
84 63 92 63 39 0 0 64 -174 290 -165 213 -251 305 -307 326 l-46 18 -141 -73
c-96 -50 -142 -69 -147 -61 -4 6 -13 118 -19 248 -11 207 -26 463 -61 1022 -5
80 -12 203 -15 274 -2 72 -8 133 -13 138 -4 4 -59 3 -122 -2 -63 -5 -203 -16
-310 -25 -671 -53 -685 -55 -697 -72 -16 -21 -16 -17 2 -204 20 -212 54 -621
57 -693 l3 -58 -160 -34 c-88 -18 -225 -47 -305 -63 -80 -17 -230 -48 -335
-70 -406 -85 -521 -109 -547 -116 l-28 -7 0 78 c0 43 -7 240 -15 439 -8 198
-22 531 -30 740 -8 209 -20 490 -25 625 -6 135 -13 340 -17 455 l-6 210 679 0
c471 -1 727 -5 834 -14 246 -21 1480 -20 1507 1 9 7 18 -10 35 -64 l23 -73 -2
-790 c-1 -434 -6 -808 -10 -829 l-9 -40 -149 -54 c-83 -29 -184 -66 -225 -81
-49 -17 -76 -32 -78 -44 -6 -32 11 -27 378 106 110 41 114 43 121 75 4 19 12
309 19 645 16 849 2 1083 -69 1167 l-26 31 -59 -11 c-39 -8 -272 -12 -680 -13
-493 -2 -690 2 -956 17 -303 16 -371 17 -718 6 -365 -12 -447 -11 -787 9 -82
5 -153 7 -159 4 -10 -6 -4 -205 19 -708 31 -655 45 -979 55 -1215 6 -135 15
-324 20 -420 5 -96 10 -221 10 -276 0 -77 4 -105 15 -114 8 -6 18 -9 23 -6 8
4 357 76 1385 283 153 30 280 54 282 51 3 -2 10 -71 16 -152 10 -120 10 -149
-1 -156 -17 -11 -306 -86 -403 -106 -43 -8 -111 -19 -150 -24 -40 -4 -121 -15
-182 -23 -60 -9 -166 -23 -235 -32 -69 -10 -226 -37 -350 -61 -230 -46 -339
-64 -540 -89 -109 -13 -199 -28 -455 -74 -60 -10 -151 -22 -202 -26 l-92 -7 4
83 c3 46 10 370 15 719 6 349 15 844 20 1100 13 589 30 1535 30 1636 l0 76
1633 -6 c897 -3 1894 -9 2215 -12 l582 -6 -5 -62 c-3 -33 -10 -207 -15 -386
-6 -179 -17 -500 -25 -715 -8 -214 -20 -525 -26 -690 -6 -165 -14 -396 -18
-513 -5 -117 -10 -214 -12 -216 -6 -6 -111 -54 -394 -181 -132 -59 -246 -112
-253 -118 -8 -7 -9 -14 -3 -20 6 -6 64 14 168 61 87 39 239 107 338 151 127
57 181 86 182 98 2 10 23 596 48 1303 24 707 46 1315 48 1353 3 37 0 67 -5 67
-5 0 -124 2 -266 5 -141 2 -1051 7 -2022 10 -971 3 -1932 8 -2135 11 -310 6
-372 5 -381 -7z m3901 -2066 c3 -65 11 -176 16 -248 5 -71 16 -238 24 -370 8
-132 17 -267 20 -300 3 -33 12 -163 20 -290 8 -126 20 -310 26 -408 7 -106 9
-181 3 -186 -5 -5 -112 -45 -239 -89 -126 -44 -294 -103 -372 -131 -119 -42
-142 -48 -147 -35 -3 9 -6 57 -6 107 0 51 -5 178 -10 282 -5 105 -14 309 -20
455 -5 146 -15 360 -20 475 -15 323 -30 728 -27 731 1 2 84 17 182 34 190 33
380 66 455 80 94 17 87 25 95 -107z m-1698 -2295 c-20 -62 -49 -161 -66 -220
-18 -59 -34 -115 -38 -124 -6 -15 -1 -16 38 -10 24 4 93 14 153 21 66 9 150
29 215 51 58 20 122 41 141 45 41 10 170 0 170 -13 0 -5 -11 -20 -25 -33 -20
-21 -34 -25 -85 -25 -45 0 -92 -11 -179 -40 -84 -29 -154 -45 -242 -55 -68 -9
-152 -23 -187 -31 -34 -9 -69 -13 -77 -10 -22 8 -18 47 9 113 14 32 46 112 72
178 52 135 122 280 131 272 3 -3 -11 -57 -30 -119z m1153 -158 c0 -5 -11 -10
-25 -10 -14 0 -25 5 -25 10 0 6 11 10 25 10 14 0 25 -4 25 -10z m-296 -25 c15
-11 17 -18 9 -26 -17 -17 -48 -6 -51 19 -4 26 14 28 42 7z"/>
<path d="M9905 8779 c50 -5 110 -13 135 -18 25 -5 78 -13 118 -17 73 -7 85
-19 27 -27 -20 -3 -13 -5 21 -6 29 0 58 5 69 13 16 12 8 15 -76 29 -111 20
-284 38 -343 36 -22 -1 0 -6 49 -10z"/>
<path d="M9753 8773 c9 -2 23 -2 30 0 6 3 -1 5 -18 5 -16 0 -22 -2 -12 -5z"/>
<path d="M9690 8745 c-19 -12 -44 -33 -55 -46 -13 -14 -2 -9 28 14 27 19 54
38 60 40 7 2 10 7 7 9 -3 3 -21 -4 -40 -17z"/>
<path d="M10108 8703 c6 -2 18 -2 25 0 6 3 1 5 -13 5 -14 0 -19 -2 -12 -5z"/>
<path d="M10030 8670 c-9 -6 -10 -10 -3 -10 6 0 15 5 18 10 8 12 4 12 -15 0z"/>
<path d="M10645 8600 c27 -12 43 -12 25 0 -8 5 -22 9 -30 9 -10 0 -8 -3 5 -9z"/>
<path d="M10746 8555 c10 -8 24 -14 29 -14 6 0 1 6 -9 14 -11 8 -24 15 -30 15
-5 0 -1 -7 10 -15z"/>
<path d="M8852 8530 c0 -14 2 -19 5 -12 2 6 2 18 0 25 -3 6 -5 1 -5 -13z"/>
<path d="M15740 8421 c-54 -7 -43 -17 21 -19 31 -1 51 4 59 13 14 17 5 17 -80
6z"/>
<path d="M8081 8214 c0 -11 3 -14 6 -6 3 7 2 16 -1 19 -3 4 -6 -2 -5 -13z"/>
<path d="M9035 8170 c21 -22 41 -40 44 -40 3 0 -13 18 -34 40 -21 22 -41 40
-44 40 -3 0 13 -18 34 -40z"/>
<path d="M10470 8098 c25 -25 47 -44 49 -43 6 7 -10 24 -52 56 l-42 32 45 -45z"/>
<path d="M8455 8110 c10 -11 20 -20 23 -20 3 0 -3 9 -13 20 -10 11 -20 20 -23
20 -3 0 3 -9 13 -20z"/>
<path d="M8041 8064 c0 -11 3 -14 6 -6 3 7 2 16 -1 19 -3 4 -6 -2 -5 -13z"/>
<path d="M9271 8044 c0 -11 3 -14 6 -6 3 7 2 16 -1 19 -3 4 -6 -2 -5 -13z"/>
<path d="M10485 7979 c-25 -34 -45 -66 -45 -73 0 -6 -7 -24 -15 -40 -9 -16
-13 -31 -11 -33 2 -2 19 25 36 61 18 36 48 83 67 106 19 22 30 40 24 40 -6 0
-31 -27 -56 -61z"/>
<path d="M8570 7977 c0 -2 15 -16 33 -33 l32 -29 -29 33 c-28 30 -36 37 -36
29z"/>
<path d="M8011 7954 c0 -11 3 -14 6 -6 3 7 2 16 -1 19 -3 4 -6 -2 -5 -13z"/>
<path d="M10360 7841 c0 -6 4 -13 10 -16 6 -3 7 1 4 9 -7 18 -14 21 -14 7z"/>
<path d="M7972 7800 c0 -14 2 -19 5 -12 2 6 2 18 0 25 -3 6 -5 1 -5 -13z"/>
<path d="M10395 7810 c-3 -5 -1 -10 4 -10 6 0 11 5 11 10 0 6 -2 10 -4 10 -3
0 -8 -4 -11 -10z"/>
<path d="M8810 7733 c18 -24 36 -41 39 -38 3 3 -12 22 -33 43 l-39 37 33 -42z"/>
<path d="M9295 7750 c44 -3 84 -2 90 2 5 4 -31 7 -80 6 l-90 -1 80 -7z"/>
<path d="M8988 7723 c6 -2 18 -2 25 0 6 3 1 5 -13 5 -14 0 -19 -2 -12 -5z"/>
<path d="M7941 7684 c0 -11 3 -14 6 -6 3 7 2 16 -1 19 -3 4 -6 -2 -5 -13z"/>
<path d="M8605 7640 c-3 -5 -1 -10 4 -10 6 0 11 5 11 10 0 6 -2 10 -4 10 -3 0
-8 -4 -11 -10z"/>
<path d="M7932 7620 c0 -14 2 -19 5 -12 2 6 2 18 0 25 -3 6 -5 1 -5 -13z"/>
<path d="M8665 7568 c3 -7 47 -41 98 -75 50 -34 119 -88 152 -120 34 -32 70
-64 80 -72 11 -7 -15 21 -58 62 -43 41 -97 88 -120 103 -23 16 -68 48 -99 72
-32 24 -55 37 -53 30z"/>
<path d="M7911 7534 c0 -11 3 -14 6 -6 3 7 2 16 -1 19 -3 4 -6 -2 -5 -13z"/>
<path d="M7902 7435 c0 -16 2 -22 5 -12 2 9 2 23 0 30 -3 6 -5 -1 -5 -18z"/>
<path d="M8298 7193 c7 -3 16 -2 19 1 4 3 -2 6 -13 5 -11 0 -14 -3 -6 -6z"/>
<path d="M7918 7123 c7 -3 16 -2 19 1 4 3 -2 6 -13 5 -11 0 -14 -3 -6 -6z"/>
<path d="M9265 6987 c10 -15 20 -25 23 -22 3 3 -5 16 -17 28 l-23 22 17 -28z"/>
<path d="M10006 6847 c3 -10 9 -15 12 -12 3 3 0 11 -7 18 -10 9 -11 8 -5 -6z"/>
<path d="M10420 6852 c0 -5 9 -35 20 -67 11 -32 18 -60 16 -62 -2 -3 -37 -13
-76 -23 -39 -10 -74 -21 -78 -24 -3 -4 -17 4 -31 18 -14 13 -39 31 -56 41
l-30 17 30 -23 c17 -13 49 -42 73 -63 24 -22 42 -34 40 -26 -3 14 132 54 143
42 9 -10 142 -413 137 -417 -6 -7 -259 -115 -268 -115 -9 0 -44 94 -49 131 0
6 -8 4 -17 -5 -14 -14 -13 -22 7 -77 27 -73 29 -70 -85 -118 -185 -78 -420
-189 -424 -199 -8 -24 34 -9 275 98 136 61 253 110 259 110 14 0 12 4 71 -165
48 -137 55 -151 71 -141 7 4 -10 66 -44 162 -30 85 -54 158 -54 162 0 4 46 27
103 51 56 24 116 52 134 62 18 10 34 15 36 11 3 -4 32 -92 67 -195 38 -117 66
-186 73 -184 7 2 12 11 11 19 -1 8 -61 195 -135 416 -99 299 -131 405 -122
410 7 5 56 18 108 31 64 15 95 27 95 37 0 19 -11 18 -121 -11 -51 -13 -97 -25
-101 -25 -3 0 -16 29 -28 65 -13 39 -27 65 -36 65 -8 0 -14 -4 -14 -8z"/>
<path d="M10120 6792 c0 -4 14 -15 30 -24 17 -9 30 -14 30 -10 0 4 -14 15 -30
24 -17 9 -30 14 -30 10z"/>
<path d="M9516 6667 c3 -10 9 -15 12 -12 3 3 0 11 -7 18 -10 9 -11 8 -5 -6z"/>
<path d="M10332 6600 c0 -14 2 -19 5 -12 2 6 2 18 0 25 -3 6 -5 1 -5 -13z"/>
<path d="M10268 6563 c12 -2 30 -2 40 0 9 3 -1 5 -23 4 -22 0 -30 -2 -17 -4z"/>
<path d="M8410 6493 c-8 -3 -18 -11 -22 -17 -6 -8 -11 -7 -17 3 -7 12 -19 9
-63 -16 -52 -30 -113 -97 -142 -158 -19 -40 -50 -159 -71 -269 -15 -83 -15
-96 1 -185 36 -204 102 -333 202 -396 31 -19 65 -35 75 -35 10 0 32 -9 48 -21
16 -11 37 -18 45 -15 9 3 25 1 36 -5 13 -7 24 -7 30 -1 7 7 2 12 -13 17 -60
18 -113 51 -155 98 -84 97 -144 262 -104 287 8 6 11 10 5 10 -5 0 23 17 64 37
96 47 169 53 244 19 29 -12 57 -29 63 -37 11 -13 115 -315 128 -371 6 -24 3
-29 -26 -38 -32 -10 -32 -10 7 -4 49 6 71 29 49 51 -7 8 -14 21 -14 29 0 14
-43 149 -60 189 -5 11 -12 31 -16 45 -4 14 -18 49 -32 78 -22 48 -23 56 -11
79 47 88 255 130 358 72 l43 -24 -4 -67 c-2 -38 -1 -68 3 -68 12 0 20 84 11
115 -5 17 -7 45 -5 63 7 57 -23 136 -85 219 -32 43 -75 93 -95 110 -70 61
-222 157 -286 180 -65 24 -164 38 -191 26z"/>
<path d="M9042 5705 c0 -16 2 -22 5 -12 2 9 2 23 0 30 -3 6 -5 -1 -5 -18z"/>
<path d="M9027 5655 c-4 -11 -11 -30 -17 -42 -14 -34 -3 -28 15 8 9 17 14 36
12 42 -2 6 -6 3 -10 -8z"/>
<path d="M8946 5534 c-21 -19 -42 -34 -47 -34 -4 0 -25 -11 -45 -25 -50 -34
-33 -31 30 5 61 35 113 76 106 83 -3 3 -23 -10 -44 -29z"/>
<path d="M8593 5379 c11 -7 23 -7 35 0 14 9 11 10 -18 10 -29 0 -32 -1 -17
-10z"/>
</g>
</svg>
